<svg width="100" height="100" viewBox="0 0 100 100" fill="none" xmlns="http://www.w3.org/2000/svg">
<path d="M20 40C20 35 25 30 35 30H65C75 30 80 35 80 40V60C80 65 75 70 65 70H35C25 70 20 65 20 60V40Z" fill="#D7CCC8"/>
<path d="M25 45C25 40 30 35 40 35H60C70 35 75 40 75 45V55C75 60 70 65 60 65H40C30 65 25 60 25 55V45Z" fill="#8D6E63"/>
<ellipse cx="35" cy="50" rx="2" ry="1" fill="#5D4037"/>
<ellipse cx="50" cy="45" rx="1.5" ry="1" fill="#5D4037"/>
<ellipse cx="65" cy="52" rx="2" ry="1" fill="#5D4037"/>
</svg>