<svg width="100" height="100" viewBox="0 0 100 100" fill="none" xmlns="http://www.w3.org/2000/svg">
<circle cx="50" cy="55" r="30" fill="#E8F5E8"/>
<path d="M30 45C30 40 35 35 50 35C65 35 70 40 70 45C70 50 65 55 50 55C35 55 30 50 30 45Z" fill="#4CAF50"/>
<circle cx="40" cy="50" r="3" fill="#FF5722"/>
<circle cx="60" cy="48" r="3" fill="#FF5722"/>
<circle cx="50" cy="52" r="2" fill="#FFC107"/>
<path d="M35 48C35 46 37 44 40 44C43 44 45 46 45 48C45 50 43 52 40 52C37 52 35 50 35 48Z" fill="#8BC34A"/>
<path d="M55 46C55 44 57 42 60 42C63 42 65 44 65 46C65 48 63 50 60 50C57 50 55 48 55 46Z" fill="#8BC34A"/>
</svg>